<svg width="18" height="18" viewBox="0 0 18 18" fill="none" xmlns="http://www.w3.org/2000/svg">
<g id="person 2">
<path id="Vector" fill-rule="evenodd" clip-rule="evenodd" d="M9.00049 0.561523C6.51705 0.561523 4.50049 2.57809 4.50049 5.06152C4.50049 7.54496 6.51705 9.56152 9.00049 9.56152C11.4839 9.56152 13.5005 7.54496 13.5005 5.06152C13.5005 2.57809 11.4839 0.561523 9.00049 0.561523ZM9.00049 1.68652C10.8635 1.68652 12.3755 3.19852 12.3755 5.06152C12.3755 6.92396 10.8635 8.43652 9.00049 8.43652C7.13805 8.43652 5.62549 6.92396 5.62549 5.06152C5.62549 3.19852 7.13805 1.68652 9.00049 1.68652Z" fill="#C4C6DB"/>
<path id="Vector_2" fill-rule="evenodd" clip-rule="evenodd" d="M1.125 15.1878C1.125 16.4304 2.13244 17.4367 3.375 17.4367H14.625C15.8676 17.4367 16.875 16.4304 16.875 15.1878C16.875 12.3922 14.6081 10.123 11.8125 10.123C10.0254 10.123 7.97456 10.123 6.1875 10.123C3.39188 10.123 1.125 12.3922 1.125 15.1878ZM2.25 15.1878C2.25 13.0132 4.01288 11.248 6.1875 11.248H11.8125C13.9871 11.248 15.75 13.0132 15.75 15.1878C15.75 15.8088 15.246 16.3117 14.625 16.3117H3.375C2.754 16.3117 2.25 15.8088 2.25 15.1878Z" fill="#C4C6DB"/>
</g>
</svg>
