<svg width="24" height="22" viewBox="0 0 24 22" fill="none" xmlns="http://www.w3.org/2000/svg">
<g id="Layer 47">
<path id="Vector" d="M22.5 10.2502H20.1637C19.9946 9.511 19.5796 8.85109 18.9866 8.37845C18.3936 7.90581 17.6577 7.64844 16.8994 7.64844C16.1411 7.64844 15.4052 7.90581 14.8122 8.37845C14.2192 8.85109 13.8042 9.511 13.635 10.2502H1.5C1.30109 10.2502 1.11032 10.3292 0.96967 10.4699C0.829018 10.6105 0.75 10.8013 0.75 11.0002C0.75 11.1991 0.829018 11.3899 0.96967 11.5305C1.11032 11.6712 1.30109 11.7502 1.5 11.7502H13.635C13.8042 12.4894 14.2192 13.1493 14.8122 13.622C15.4052 14.0946 16.1411 14.352 16.8994 14.352C17.6577 14.352 18.3936 14.0946 18.9866 13.622C19.5796 13.1493 19.9946 12.4894 20.1637 11.7502H22.5C22.6989 11.7502 22.8897 11.6712 23.0303 11.5305C23.171 11.3899 23.25 11.1991 23.25 11.0002C23.25 10.8013 23.171 10.6105 23.0303 10.4699C22.8897 10.3292 22.6989 10.2502 22.5 10.2502ZM16.8975 12.8527C16.5311 12.8527 16.1729 12.7441 15.8683 12.5405C15.5637 12.3369 15.3262 12.0476 15.186 11.7091C15.0458 11.3706 15.0091 10.9981 15.0806 10.6388C15.1521 10.2795 15.3285 9.94937 15.5876 9.69029C15.8467 9.43121 16.1767 9.25478 16.5361 9.1833C16.8954 9.11182 17.2679 9.14851 17.6064 9.28872C17.9449 9.42893 18.2342 9.66637 18.4378 9.97101C18.6414 10.2757 18.75 10.6338 18.75 11.0002C18.75 11.4915 18.5548 11.9627 18.2074 12.3101C17.86 12.6575 17.3888 12.8527 16.8975 12.8527Z" fill="#C4C6DB"/>
<path id="Vector_2" d="M1.5 4.25021H3.5325C3.70165 4.98941 4.11669 5.64932 4.70969 6.12196C5.3027 6.5946 6.03856 6.85197 6.79688 6.85197C7.55519 6.85197 8.29105 6.5946 8.88406 6.12196C9.47706 5.64932 9.8921 4.98941 10.0612 4.25021H22.5C22.6989 4.25021 22.8897 4.17119 23.0303 4.03054C23.171 3.88988 23.25 3.69912 23.25 3.50021C23.25 3.30129 23.171 3.11053 23.0303 2.96988C22.8897 2.82922 22.6989 2.75021 22.5 2.75021H10.0612C9.8921 2.011 9.47706 1.35109 8.88406 0.878449C8.29105 0.405812 7.55519 0.148438 6.79688 0.148438C6.03856 0.148437 5.3027 0.405812 4.70969 0.878449C4.11669 1.35109 3.70165 2.011 3.5325 2.75021H1.5C1.30109 2.75021 1.11032 2.82922 0.96967 2.96988C0.829018 3.11053 0.75 3.30129 0.75 3.50021C0.75 3.69912 0.829018 3.88988 0.96967 4.03054C1.11032 4.17119 1.30109 4.25021 1.5 4.25021ZM6.79875 1.64771C7.28941 1.6487 7.75964 1.84431 8.10624 2.19161C8.45284 2.53892 8.6475 3.00954 8.6475 3.50021C8.62605 3.97661 8.4217 4.42639 8.07699 4.75593C7.73228 5.08547 7.27376 5.26938 6.79688 5.26938C6.31999 5.26938 5.86147 5.08547 5.51676 4.75593C5.17205 4.42639 4.9677 3.97661 4.94625 3.50021C4.94625 3.00889 5.14142 2.5377 5.48883 2.19029C5.83625 1.84288 6.30744 1.64771 6.79875 1.64771Z" fill="#C4C6DB"/>
<path id="Vector_3" d="M22.5 17.7502H13.3912C13.2221 17.011 12.8071 16.3511 12.2141 15.8784C11.6211 15.4058 10.8852 15.1484 10.1269 15.1484C9.36856 15.1484 8.6327 15.4058 8.03969 15.8784C7.44669 16.3511 7.03165 17.011 6.8625 17.7502H1.5C1.30109 17.7502 1.11032 17.8292 0.96967 17.9699C0.829018 18.1105 0.75 18.3013 0.75 18.5002C0.75 18.6991 0.829018 18.8899 0.96967 19.0305C1.11032 19.1712 1.30109 19.2502 1.5 19.2502H6.8625C7.03165 19.9894 7.44669 20.6493 8.03969 21.122C8.6327 21.5946 9.36856 21.852 10.1269 21.852C10.8852 21.852 11.6211 21.5946 12.2141 21.122C12.8071 20.6493 13.2221 19.9894 13.3912 19.2502H22.5C22.6989 19.2502 22.8897 19.1712 23.0303 19.0305C23.171 18.8899 23.25 18.6991 23.25 18.5002C23.25 18.3013 23.171 18.1105 23.0303 17.9699C22.8897 17.8292 22.6989 17.7502 22.5 17.7502ZM10.125 20.3527C9.75861 20.3527 9.40045 20.2441 9.09581 20.0405C8.79116 19.8369 8.55372 19.5476 8.41351 19.2091C8.2733 18.8706 8.23662 18.4982 8.30809 18.1388C8.37957 17.7795 8.55601 17.4494 8.81508 17.1903C9.07416 16.9312 9.40425 16.7548 9.76359 16.6833C10.1229 16.6118 10.4954 16.6485 10.8339 16.7887C11.1724 16.9289 11.4617 17.1664 11.6653 17.471C11.8689 17.7757 11.9775 18.1338 11.9775 18.5002C11.9775 18.9915 11.7823 19.4627 11.4349 19.8101C11.0875 20.1575 10.6163 20.3527 10.125 20.3527Z" fill="#C4C6DB"/>
</g>
</svg>
