<svg xmlns="http://www.w3.org/2000/svg" width="16" height="16" viewBox="0 0 16 16" fill="none">
  <g clip-path="url(#clip0_873_6129)">
    <path d="M15.3333 15.333L11.9555 11.9552M11.9555 11.9552C12.5333 11.3774 12.9916 10.6914 13.3043 9.93649C13.617 9.18157 13.7779 8.37244 13.7779 7.55532C13.7779 6.73819 13.617 5.92907 13.3043 5.17414C12.9916 4.41922 12.5333 3.73328 11.9555 3.15548C11.3777 2.57769 10.6917 2.11935 9.9368 1.80665C9.18187 1.49395 8.37275 1.33301 7.55562 1.33301C6.7385 1.33301 5.92937 1.49395 5.17445 1.80665C4.41952 2.11935 3.73358 2.57769 3.15579 3.15548C1.98888 4.32239 1.33331 5.90506 1.33331 7.55532C1.33331 9.20558 1.98888 10.7882 3.15579 11.9552C4.3227 13.1221 5.90536 13.7776 7.55562 13.7776C9.20588 13.7776 10.7886 13.1221 11.9555 11.9552Z" stroke="#6D6FF6" stroke-width="1.5" stroke-linecap="round" stroke-linejoin="round"/>
  </g>
  <defs>
    <clipPath id="clip0_873_6129">
      <rect width="16" height="16" fill="white"/>
    </clipPath>
  </defs>
</svg>