<svg width="16" height="15" viewBox="0 0 16 15" fill="none" xmlns="http://www.w3.org/2000/svg">
<path d="M14.625 15C12.8889 15 11.1736 14.6215 9.47917 13.8646C7.78472 13.1076 6.24306 12.0347 4.85417 10.6458C3.46528 9.25694 2.39236 7.71528 1.63542 6.02083C0.878472 4.32639 0.5 2.61111 0.5 0.875C0.5 0.625 0.583333 0.416667 0.75 0.25C0.916667 0.0833333 1.125 0 1.375 0H4.75C4.94444 0 5.11806 0.0659722 5.27083 0.197917C5.42361 0.329861 5.51389 0.486111 5.54167 0.666667L6.08333 3.58333C6.11111 3.80556 6.10417 3.99306 6.0625 4.14583C6.02083 4.29861 5.94444 4.43056 5.83333 4.54167L3.8125 6.58333C4.09028 7.09722 4.42014 7.59375 4.80208 8.07292C5.18403 8.55208 5.60417 9.01389 6.0625 9.45833C6.49306 9.88889 6.94444 10.2882 7.41667 10.6562C7.88889 11.0243 8.38889 11.3611 8.91667 11.6667L10.875 9.70833C11 9.58333 11.1632 9.48958 11.3646 9.42708C11.566 9.36458 11.7639 9.34722 11.9583 9.375L14.8333 9.95833C15.0278 10.0139 15.1875 10.1146 15.3125 10.2604C15.4375 10.4062 15.5 10.5694 15.5 10.75V14.125C15.5 14.375 15.4167 14.5833 15.25 14.75C15.0833 14.9167 14.875 15 14.625 15Z" fill="#000"/>
</svg>
