<svg width="114" height="22" viewBox="0 0 114 22" fill="none" xmlns="http://www.w3.org/2000/svg">
<path d="M24.0667 21.9453V0.106445H31.841C38.1069 0.106445 41.9452 2.99401 41.9452 8.05778C41.9452 13.3149 38.1721 16.1702 32.104 16.1702H28.857V21.9131L24.0667 21.9453ZM28.8545 4.48612V11.7881H31.9712C35.1205 11.7881 37.0221 10.5884 37.0221 8.0553C37.0221 5.65354 35.1205 4.48612 31.9712 4.48612H28.8545Z" fill="#494AD6"/>
<path d="M90.6824 21.9457L95.9437 13.6498C96.7329 12.413 97.0611 11.6 97.0611 10.8193C97.0611 10.0063 96.7003 9.22555 95.9437 8.02096L90.9129 0.0498047H96.5375L100.451 6.45944C100.912 7.2402 101.24 8.02096 101.471 8.83393H103.247C103.445 8.02096 103.806 7.2402 104.267 6.45944L108.18 0.0498047H113.802L108.739 8.02096C107.982 9.22555 107.654 10.0063 107.654 10.8193C107.654 11.6 107.949 12.413 108.739 13.6498L114 21.9457H108.278L104.267 15.5361C103.806 14.7553 103.477 13.9745 103.247 13.1938H101.471C101.24 13.9745 100.879 14.7553 100.418 15.5361L96.4398 21.9457H90.6824Z" fill="#494AD6"/>
<path d="M45.9186 20.1832C44.6935 19.0133 44.0822 17.3204 44.0822 15.107V6.831C44.0822 4.61762 44.6935 2.92474 45.9186 1.75484C47.1438 0.584945 49.1606 0 51.9692 0H59.3826V3.44772H51.9692C50.8067 3.44772 49.9473 3.72037 49.3886 4.26318C48.8299 4.806 48.5493 5.66359 48.5493 6.83348V9.24763H57.9896V12.6954H48.5493V15.1095C48.5493 16.2596 48.8299 17.1097 49.3886 17.6625C49.9473 18.2152 50.8092 18.4928 51.9692 18.4928H59.4452V21.9405H51.9692C49.1606 21.938 47.1413 21.3531 45.9186 20.1832Z" fill="#494AD6"/>
<path d="M80.2049 21.938H75.4847L74.0266 17.08C73.731 16.0762 73.4353 15.3004 73.1397 14.7452C72.8441 14.1924 72.4432 13.7686 71.9371 13.4761C71.431 13.1836 70.7546 13.0374 69.9103 13.0374H66.7109V21.938H62.2438V0H71.2081C73.9114 0 75.9057 0.527936 77.1959 1.58382C78.4837 2.6397 79.1276 4.28549 79.1276 6.5187C79.1276 7.96124 78.7417 9.11875 77.9701 9.99865C77.1984 10.8761 76.1387 11.4412 74.7857 11.6915C75.8631 12.046 76.6748 12.6631 77.226 13.5406C77.7747 14.418 78.2808 15.6077 78.7468 17.1122L80.2049 21.938ZM73.726 8.82131C74.3498 8.31072 74.6605 7.54236 74.6605 6.5187C74.6605 5.49504 74.3498 4.72668 73.726 4.21609C73.1021 3.7055 72.3054 3.44772 71.3333 3.44772H66.7084V9.58968H71.3333C72.3054 9.58968 73.1046 9.33438 73.726 8.82131Z" fill="#494AD6"/>
<path d="M83.0961 0H87.5632V21.938H83.0961V0Z" fill="#494AD6"/>
<path d="M11.0237 0.188477C4.93561 0.188477 0 5.07131 0 11.0943C0 17.1173 4.93561 22.0001 11.0237 22.0001C17.1118 22.0001 22.0474 17.1173 22.0474 11.0943C22.0474 5.07131 17.1118 0.188477 11.0237 0.188477ZM10.3748 1.59135C10.3748 1.1576 10.7306 0.805644 11.169 0.805644C11.6075 0.805644 11.9632 1.1576 11.9632 1.59135V2.37707C11.9632 2.81083 11.6075 3.16279 11.169 3.16279C10.7306 3.16279 10.3748 2.81083 10.3748 2.37707V1.59135ZM6.47392 13.0945C6.47392 13.6472 6.11816 14.0959 5.67971 14.0959C5.24127 14.0959 4.8855 13.6472 4.8855 13.0945V9.09406C4.8855 8.54134 5.24127 8.09271 5.67971 8.09271C6.11816 8.09271 6.47392 8.54134 6.47392 9.09406V13.0945ZM9.2549 15.0947C9.2549 15.6475 8.89914 16.0961 8.46069 16.0961C8.02225 16.0961 7.66648 15.6475 7.66648 15.0947V7.09383C7.66648 6.54111 8.02225 6.09248 8.46069 6.09248C8.89914 6.09248 9.2549 6.54111 9.2549 7.09383V15.0947ZM11.9632 20.5972C11.9632 21.031 11.6075 21.3829 11.169 21.3829C10.7306 21.3829 10.3748 21.031 10.3748 20.5972V19.8115C10.3748 19.3777 10.7306 19.0258 11.169 19.0258C11.6075 19.0258 11.9632 19.3777 11.9632 19.8115V20.5972ZM12.0359 17.095C12.0359 17.6477 11.6801 18.0963 11.2417 18.0963C10.8032 18.0963 10.4475 17.6477 10.4475 17.095V5.09361C10.4475 4.54088 10.8032 4.09226 11.2417 4.09226C11.6801 4.09226 12.0359 4.54088 12.0359 5.09361V17.095ZM14.5613 15.0947C14.5613 15.6475 14.2055 16.0961 13.7671 16.0961C13.3287 16.0961 12.9729 15.6475 12.9729 15.0947V7.09383C12.9729 6.54111 13.3287 6.09248 13.7671 6.09248C14.2055 6.09248 14.5613 6.54111 14.5613 7.09383V15.0947ZM17.1619 12.7302C17.1619 13.2829 16.8061 13.7315 16.3677 13.7315C15.9292 13.7315 15.5735 13.2829 15.5735 12.7302V8.72971C15.5735 8.17698 15.9292 7.72835 16.3677 7.72835C16.8061 7.72835 17.1619 8.17698 17.1619 8.72971V12.7302Z" fill="#494AD6"/>
</svg>
