<svg width="24" height="24" viewBox="0 0 24 24" fill="none" xmlns="http://www.w3.org/2000/svg">
<g id="Group">
<g id="Group_2">
<path id="Vector" d="M18.9676 14.8676C18.4762 14.356 17.8836 14.0825 17.2555 14.0825C16.6324 14.0825 16.0347 14.3509 15.5231 14.8625L13.9225 16.4581C13.7908 16.3872 13.6591 16.3214 13.5324 16.2555C13.3501 16.1643 13.1779 16.0782 13.031 15.9871C11.5316 15.0348 10.169 13.7937 8.86216 12.188C8.22899 11.3877 7.8035 10.714 7.49451 10.0302C7.90987 9.65028 8.29484 9.25518 8.66968 8.87528C8.81151 8.73345 8.95334 8.58655 9.09517 8.44472C10.1589 7.381 10.1589 6.00322 9.09517 4.93949L7.71233 3.55665C7.5553 3.39962 7.39321 3.23753 7.24125 3.07544C6.93733 2.76139 6.61821 2.4372 6.28896 2.13328C5.79762 1.64701 5.21004 1.38867 4.59206 1.38867C3.97409 1.38867 3.37637 1.64701 2.86984 2.13328C2.86477 2.13835 2.86477 2.13835 2.85971 2.14341L1.13748 3.88083C0.489117 4.5292 0.119345 5.31939 0.0382993 6.23623C-0.0832695 7.71531 0.352352 9.09309 0.686666 9.99473C1.50725 12.2083 2.73307 14.2598 4.56167 16.4581C6.7803 19.1073 9.44975 21.1993 12.4991 22.6733C13.6641 23.2255 15.2192 23.8789 16.9566 23.9903C17.063 23.9954 17.1744 24.0005 17.2757 24.0005C18.4458 24.0005 19.4285 23.58 20.1984 22.7442C20.2035 22.7341 20.2136 22.7291 20.2187 22.7189C20.4821 22.3998 20.786 22.1111 21.1051 21.8021C21.323 21.5944 21.5458 21.3766 21.7636 21.1487C22.2651 20.6269 22.5285 20.0191 22.5285 19.396C22.5285 18.7679 22.26 18.1652 21.7484 17.6586L18.9676 14.8676ZM20.781 20.2014C20.7759 20.2014 20.7759 20.2065 20.781 20.2014C20.5834 20.4142 20.3808 20.6067 20.163 20.8194C19.8337 21.1335 19.4994 21.4627 19.1854 21.8325C18.6738 22.3795 18.071 22.6379 17.2808 22.6379C17.2048 22.6379 17.1238 22.6379 17.0478 22.6328C15.5434 22.5366 14.1453 21.949 13.0968 21.4475C10.2298 20.0596 7.71233 18.0892 5.62033 15.592C3.89304 13.5101 2.73814 11.5852 1.97327 9.51858C1.50219 8.25731 1.32997 7.27463 1.40595 6.34766C1.4566 5.75502 1.68454 5.26368 2.10497 4.84325L3.83226 3.11596C4.08046 2.88295 4.34386 2.75632 4.60219 2.75632C4.92131 2.75632 5.17964 2.9488 5.34174 3.1109C5.3468 3.11596 5.35187 3.12103 5.35693 3.12609C5.66592 3.41482 5.95971 3.71367 6.2687 4.03279C6.42572 4.19488 6.58781 4.35698 6.74991 4.52413L8.13275 5.90698C8.66968 6.44391 8.66968 6.94031 8.13275 7.47724C7.98586 7.62414 7.84403 7.77103 7.69713 7.91286C7.27164 8.34848 6.86641 8.75371 6.42572 9.14881C6.41559 9.15894 6.40546 9.16401 6.4004 9.17414C5.96478 9.60976 6.04582 10.0352 6.137 10.324C6.14206 10.3392 6.14713 10.3544 6.15219 10.3696C6.51183 11.2408 7.01837 12.0614 7.78831 13.039L7.79337 13.0441C9.19141 14.7663 10.6654 16.1086 12.2914 17.1369C12.4991 17.2686 12.7118 17.375 12.9145 17.4763C13.0968 17.5674 13.269 17.6536 13.4159 17.7447C13.4362 17.7549 13.4564 17.7701 13.4767 17.7802C13.6489 17.8663 13.811 17.9068 13.9782 17.9068C14.3986 17.9068 14.662 17.6434 14.7481 17.5573L16.4805 15.825C16.6527 15.6527 16.9262 15.4451 17.2453 15.4451C17.5594 15.4451 17.8177 15.6426 17.9748 15.8148C17.9798 15.8199 17.9798 15.8199 17.9849 15.825L20.7759 18.616C21.2976 19.1326 21.2976 19.6645 20.781 20.2014Z" fill="white"/>
<path id="Vector_2" d="M15.1394 9.43536L15.1376 9.43626C15.1141 9.44845 15.0896 9.46096 15.0645 9.47376C15.041 9.48577 15.017 9.49803 14.9928 9.5105L14.1336 8.65783C13.8187 8.34428 13.443 8.17294 13.045 8.17294C12.644 8.17294 12.2708 8.34733 11.9672 8.66167L10.3626 10.2649C10.3625 10.265 10.3624 10.2651 10.3623 10.2652C10.0467 10.5764 9.87488 10.9537 9.87488 11.3528C9.87488 11.7483 10.0432 12.1277 10.3515 12.4471M15.1394 9.43536L10.8219 12.7361L10.7358 12.8268C10.7357 12.8267 10.7356 12.8265 10.7354 12.8264C10.6091 12.7065 10.479 12.58 10.3515 12.4471M15.1394 9.43536C15.2458 9.3824 15.3395 9.33562 15.4184 9.28693L15.1394 9.43536ZM10.3515 12.4471C10.3516 12.4472 10.3516 12.4472 10.3517 12.4473L10.4416 12.3604L10.3514 12.447C10.3514 12.447 10.3515 12.4471 10.3515 12.4471ZM11.233 13.3375C11.2294 13.3324 11.2256 13.3263 11.2221 13.3193L11.3338 13.2632L11.2712 13.3151L11.2385 13.3422M11.233 13.3375L11.2514 13.3591C11.2521 13.3598 11.2518 13.3594 11.2512 13.3589M11.233 13.3375C11.2345 13.3393 11.236 13.3412 11.2375 13.343L11.2381 13.3425M11.233 13.3375L11.2381 13.3425M11.2385 13.3422C11.2419 13.3478 11.2452 13.352 11.2476 13.3548L11.2512 13.3589M11.2385 13.3422L11.2381 13.3425M11.2385 13.3422C11.2369 13.3397 11.2353 13.337 11.2338 13.3339L11.2381 13.3425M11.2512 13.3589L11.248 13.3556C11.2463 13.3538 11.2439 13.3513 11.2412 13.3481C11.241 13.3478 11.2407 13.3476 11.2405 13.3473M11.2512 13.3589L11.2405 13.3473M11.2381 13.3425L11.2405 13.3473M11.2381 13.3425L11.2405 13.3473M11.2405 13.3473L11.2417 13.3497L11.2537 13.3627C11.723 13.8698 12.3243 14.125 13.0333 14.125C13.0953 14.125 13.1625 14.1219 13.2235 14.119L13.2256 14.1189L13.2256 14.1189C14.2536 14.0533 15.1694 13.6689 15.8451 13.3501L15.846 13.3496C17.6233 12.4944 19.1789 11.2805 20.4713 9.74422L20.4715 9.7439C21.5349 8.47123 22.2508 7.27968 22.7306 5.99143C22.7306 5.99143 22.7306 5.99143 22.7306 5.99142L22.6134 5.9478L11.2405 13.3473ZM11.4526 12.081C11.6426 12.2615 11.8386 12.4535 12.0236 12.6701C12.2939 12.9569 12.608 13.0916 13.0304 13.0916C13.0751 13.0916 13.1177 13.0916 13.1567 13.089L13.157 13.089C14.0007 13.0352 14.79 12.7065 15.3927 12.4195C17.0319 11.6294 18.4715 10.5078 19.6684 9.08555C20.6587 7.89722 21.3175 6.80274 21.7532 5.6305L21.7534 5.63015C22.0214 4.91569 22.1153 4.36998 22.0735 3.8615C22.0467 3.5503 21.9279 3.29549 21.7062 3.0747L20.7101 2.08307C20.5816 1.96346 20.4591 1.91129 20.3522 1.91129C20.2179 1.91129 20.0991 1.99335 20.0133 2.07873L20.0046 2.08746L20.0046 2.08751L20.0015 2.0904C19.8255 2.25415 19.6576 2.42409 19.4794 2.60731L19.4794 2.60734C19.4337 2.65435 19.3872 2.7013 19.3409 2.7482L19.34 2.74909C19.2938 2.79581 19.2476 2.84251 19.2015 2.88986L19.2015 2.88987L19.2001 2.89123L18.4015 3.68626C18.2584 3.82879 18.2058 3.94729 18.2058 4.04906C18.2058 4.15083 18.2584 4.26933 18.4015 4.41186C18.4311 4.44125 18.4597 4.47006 18.4878 4.49844C18.5428 4.55376 18.5961 4.60748 18.6515 4.66078L18.6516 4.66074L18.6541 4.66335C18.8994 4.91331 19.1311 5.1439 19.3824 5.36821L19.3825 5.36807L19.3851 5.3707L19.3887 5.37366C19.3925 5.37687 19.4007 5.38399 19.4095 5.39506C19.5489 5.53671 19.6118 5.68343 19.6281 5.8238C19.6443 5.96327 19.6132 6.08607 19.585 6.17489L19.585 6.1749L19.5844 6.17678L19.58 6.18989L19.5756 6.20299L19.5759 6.20309L19.5726 6.21118C19.3592 6.7258 19.0597 7.20753 18.6103 7.77558L18.6057 7.78139L18.6021 7.78497C17.7887 8.78156 16.9289 9.56128 15.9785 10.1597C15.8532 10.2388 15.7256 10.3023 15.6099 10.3599L15.6076 10.361C15.501 10.4141 15.4071 10.461 15.3281 10.5098L15.3283 10.5102L15.3181 10.5153C15.3182 10.5153 15.317 10.5159 15.3108 10.5198L15.3099 10.5204C15.3046 10.5236 15.2943 10.5301 15.2829 10.5357C15.1685 10.5927 15.056 10.6216 14.9376 10.6216C14.6431 10.6216 14.4599 10.4391 14.4061 10.3856L14.4048 10.3843L13.4044 9.38832C13.3106 9.29494 13.1835 9.20632 13.0509 9.20632C12.9213 9.20632 12.8032 9.28945 12.7218 9.37833L12.7219 9.37842L12.7178 9.38251L12.712 9.38831L12.712 9.38832L11.1002 10.9929L11.0998 10.9934C10.9636 11.1276 10.9109 11.2483 10.9107 11.356C10.9104 11.4643 10.963 11.5883 11.099 11.729L11.1005 11.7306C11.1918 11.8285 11.2847 11.9184 11.3854 12.0159C11.4074 12.0372 11.4298 12.0588 11.4526 12.081ZM11.4526 12.081C11.4524 12.0808 11.4522 12.0807 11.452 12.0805L11.366 12.1711M11.4526 12.081C11.4528 12.0812 11.4529 12.0814 11.4531 12.0815L11.366 12.1711M11.366 12.1711C11.3435 12.1493 11.3212 12.1278 11.2993 12.1065C11.1984 12.0089 11.1028 11.9163 11.0091 11.8159M11.366 12.1711C11.5561 12.3517 11.7492 12.541 11.9305 12.7536C12.226 13.0681 12.5741 13.2166 13.0304 13.2166L11.0091 11.8159M11.0091 11.8159C10.7107 11.5072 10.7107 11.2014 11.012 10.9043M11.0091 11.8159L11.012 10.9043M11.012 10.9043L12.6238 9.29973L12.6296 9.29391C12.7203 9.19489 12.8695 9.08132 13.0509 9.08132C13.2352 9.08132 13.3931 9.20072 13.4926 9.29973L14.493 10.2957C14.5427 10.3452 14.6949 10.4966 14.9376 10.4966C15.0342 10.4966 15.1278 10.4733 15.2272 10.4238C15.2331 10.4209 15.2389 10.4173 15.2448 10.4136C15.2506 10.41 15.2565 10.4064 15.2623 10.4034C15.3472 10.351 15.4466 10.3015 15.5519 10.2491C15.6689 10.1909 15.7918 10.1297 15.9117 10.054C16.8507 9.46281 17.702 8.69108 18.5093 7.70094L18.5123 7.69803C18.9569 7.13598 19.2494 6.6642 19.4571 6.16331L19.4659 6.1371C19.5185 5.9711 19.5653 5.72648 19.3138 5.47603C19.3119 5.47227 19.3088 5.46972 19.3052 5.46682C19.3033 5.46523 19.3012 5.46353 19.2991 5.46147L11.012 10.9043Z" fill="white" stroke="white" stroke-width="0.25"/>
</g>
</g>
</svg>
