<svg width="24" height="24" viewBox="0 0 24 24" fill="none" xmlns="http://www.w3.org/2000/svg">
<g id="Group">
<g id="Group_2">
<path id="Vector" d="M18.9676 14.8676C18.4762 14.356 17.8836 14.0825 17.2555 14.0825C16.6324 14.0825 16.0347 14.3509 15.5231 14.8625L13.9225 16.4581C13.7908 16.3872 13.6591 16.3214 13.5324 16.2555C13.3501 16.1643 13.1779 16.0782 13.031 15.9871C11.5316 15.0348 10.169 13.7937 8.86216 12.188C8.22899 11.3877 7.8035 10.714 7.49451 10.0302C7.90987 9.65028 8.29484 9.25518 8.66968 8.87528C8.81151 8.73345 8.95334 8.58655 9.09517 8.44472C10.1589 7.381 10.1589 6.00322 9.09517 4.93949L7.71233 3.55665C7.5553 3.39962 7.39321 3.23753 7.24125 3.07544C6.93733 2.76139 6.61821 2.4372 6.28896 2.13328C5.79762 1.64701 5.21004 1.38867 4.59206 1.38867C3.97409 1.38867 3.37637 1.64701 2.86984 2.13328C2.86477 2.13835 2.86477 2.13835 2.85971 2.14341L1.13748 3.88083C0.489117 4.5292 0.119345 5.31939 0.0382993 6.23623C-0.0832695 7.71531 0.352352 9.09309 0.686666 9.99473C1.50725 12.2083 2.73307 14.2598 4.56167 16.4581C6.7803 19.1073 9.44975 21.1993 12.4991 22.6733C13.6641 23.2255 15.2192 23.8789 16.9566 23.9903C17.063 23.9954 17.1744 24.0005 17.2757 24.0005C18.4458 24.0005 19.4285 23.58 20.1984 22.7442C20.2035 22.7341 20.2136 22.7291 20.2187 22.7189C20.4821 22.3998 20.786 22.1111 21.1051 21.8021C21.323 21.5944 21.5458 21.3766 21.7636 21.1487C22.2651 20.6269 22.5285 20.0191 22.5285 19.396C22.5285 18.7679 22.26 18.1652 21.7484 17.6586L18.9676 14.8676ZM20.781 20.2014C20.7759 20.2014 20.7759 20.2065 20.781 20.2014C20.5834 20.4142 20.3808 20.6067 20.163 20.8194C19.8337 21.1335 19.4994 21.4627 19.1854 21.8325C18.6738 22.3795 18.071 22.6379 17.2808 22.6379C17.2048 22.6379 17.1238 22.6379 17.0478 22.6328C15.5434 22.5366 14.1453 21.949 13.0968 21.4475C10.2298 20.0596 7.71233 18.0892 5.62033 15.592C3.89304 13.5101 2.73814 11.5852 1.97327 9.51858C1.50219 8.25731 1.32997 7.27463 1.40595 6.34766C1.4566 5.75502 1.68454 5.26368 2.10497 4.84325L3.83226 3.11596C4.08046 2.88295 4.34386 2.75632 4.60219 2.75632C4.92131 2.75632 5.17964 2.9488 5.34174 3.1109C5.3468 3.11596 5.35187 3.12103 5.35693 3.12609C5.66592 3.41482 5.95971 3.71367 6.2687 4.03279C6.42572 4.19488 6.58781 4.35698 6.74991 4.52413L8.13275 5.90698C8.66968 6.44391 8.66968 6.94031 8.13275 7.47724C7.98586 7.62414 7.84403 7.77103 7.69713 7.91286C7.27164 8.34848 6.86641 8.75371 6.42572 9.14881C6.41559 9.15894 6.40546 9.16401 6.4004 9.17414C5.96478 9.60976 6.04582 10.0352 6.137 10.324C6.14206 10.3392 6.14713 10.3544 6.15219 10.3696C6.51183 11.2408 7.01837 12.0614 7.78831 13.039L7.79337 13.0441C9.19141 14.7663 10.6654 16.1086 12.2914 17.1369C12.4991 17.2686 12.7118 17.375 12.9145 17.4763C13.0968 17.5674 13.269 17.6536 13.4159 17.7447C13.4362 17.7549 13.4564 17.7701 13.4767 17.7802C13.6489 17.8663 13.811 17.9068 13.9782 17.9068C14.3986 17.9068 14.662 17.6434 14.7481 17.5573L16.4805 15.825C16.6527 15.6527 16.9262 15.4451 17.2453 15.4451C17.5594 15.4451 17.8177 15.6426 17.9748 15.8148C17.9798 15.8199 17.9798 15.8199 17.9849 15.825L20.7759 18.616C21.2976 19.1326 21.2976 19.6645 20.781 20.2014Z" fill="white"/>
<path id="Vector_2" d="M11.6224 6.50052C13.0903 6.74706 14.4237 7.44183 15.4882 8.5064C16.5527 9.57097 17.2418 10.9045 17.4939 12.3725C17.5555 12.7423 17.8749 13 18.239 13C18.2838 13 18.3231 12.9944 18.3679 12.9888C18.7825 12.9216 19.057 12.5293 18.9898 12.1147C18.6872 10.3386 17.8468 8.71931 16.5639 7.43622C15.2809 6.15314 13.6618 5.31269 11.8858 5.01013C11.4712 4.94289 11.0846 5.21744 11.0118 5.62646C10.9389 6.03548 11.2079 6.43329 11.6224 6.50052Z" fill="white"/>
<path id="Vector_3" d="M23.9898 10.236C23.5541 7.67952 22.3497 5.35322 20.4992 3.50198C18.6486 1.65073 16.3231 0.445954 13.7676 0.0100797C13.4102 -0.0535874 13.0724 0.191286 13.0087 0.548801C12.95 0.911214 13.1899 1.24914 13.5521 1.31281C15.8335 1.69971 17.9142 2.78205 19.569 4.43249C21.2237 6.08784 22.3008 8.16926 22.6875 10.4515C22.7414 10.7747 23.0204 11 23.3387 11C23.3778 11 23.4121 10.9951 23.4513 10.9902C23.8087 10.9363 24.0534 10.5935 23.9898 10.236Z" fill="white"/>
</g>
</g>
</svg>
