<svg width="24" height="24" viewBox="0 0 24 24" fill="none" xmlns="http://www.w3.org/2000/svg">
<g id="dial-pad 1">
<path id="Vector" d="M4.16572 1C3.53961 1.00001 2.92756 1.18609 2.40698 1.5347C1.88639 1.88331 1.48064 2.37881 1.24105 2.95852C1.00145 3.53824 0.938767 4.17614 1.06092 4.79156C1.18307 5.40698 1.48458 5.97227 1.92731 6.41596C2.37004 6.85965 2.93411 7.16181 3.54818 7.28422C4.16226 7.40663 4.79877 7.3438 5.37722 7.10367C5.95567 6.86355 6.45008 6.45691 6.79792 5.93518C7.14577 5.41345 7.33143 4.80007 7.33143 4.17259C7.33049 3.33145 6.99666 2.52503 6.40317 1.93026C5.80969 1.33549 5.00502 1.00094 4.16572 1ZM4.16572 5.96718C3.81156 5.96717 3.46535 5.86191 3.17088 5.66471C2.87641 5.46752 2.6469 5.18724 2.51138 4.85932C2.37585 4.5314 2.3404 4.17057 2.4095 3.82246C2.4786 3.47434 2.64914 3.15458 2.89958 2.90361C3.15001 2.65264 3.46908 2.48172 3.81643 2.41248C4.16379 2.34324 4.52383 2.37878 4.85103 2.51461C5.17823 2.65044 5.4579 2.88046 5.65466 3.17557C5.85142 3.47069 5.95644 3.81766 5.95644 4.17259C5.9559 4.64839 5.76706 5.10454 5.43135 5.44098C5.09564 5.77741 4.64048 5.96665 4.16572 5.96718ZM12 1C11.3739 1 10.7619 1.18607 10.2413 1.53468C9.72068 1.88329 9.31492 2.37878 9.07532 2.95849C8.83572 3.53821 8.77303 4.17611 8.89518 4.79153C9.01732 5.40695 9.31883 5.97225 9.76155 6.41595C10.2043 6.85964 10.7684 7.1618 11.3824 7.28422C11.9965 7.40663 12.633 7.3438 13.2115 7.10368C13.7899 6.86355 14.2843 6.45691 14.6322 5.93518C14.98 5.41346 15.1657 4.80007 15.1657 4.17259C15.1648 3.33146 14.8309 2.52505 14.2374 1.93028C13.644 1.33551 12.8393 1.00095 12 1ZM12 5.96718C11.6459 5.96718 11.2997 5.86193 11.0052 5.66473C10.7107 5.46754 10.4812 5.18727 10.3457 4.85935C10.2101 4.53143 10.1747 4.1706 10.2438 3.82248C10.3128 3.47437 10.4834 3.1546 10.7338 2.90362C10.9843 2.65265 11.3033 2.48173 11.6507 2.41248C11.998 2.34324 12.3581 2.37878 12.6853 2.51461C13.0125 2.65043 13.2922 2.88045 13.4889 3.17557C13.6857 3.47069 13.7907 3.81765 13.7907 4.17259C13.7902 4.64838 13.6013 5.10453 13.2656 5.44096C12.9299 5.7774 12.4748 5.96664 12 5.96718ZM19.8343 7.34518C20.4604 7.34517 21.0725 7.15909 21.5931 6.81048C22.1137 6.46187 22.5194 5.96637 22.759 5.38666C22.9986 4.80694 23.0613 4.16904 22.9391 3.55362C22.817 2.9382 22.5155 2.37291 22.0727 1.92922C21.63 1.48553 21.0659 1.18337 20.4519 1.06096C19.8378 0.938547 19.2013 1.00138 18.6228 1.2415C18.0444 1.48163 17.55 1.88827 17.2021 2.41C16.8543 2.93173 16.6686 3.54511 16.6686 4.17259C16.6696 5.01373 17.0034 5.82015 17.5969 6.41492C18.1904 7.00969 18.995 7.34424 19.8343 7.34518ZM19.8343 2.378C20.1885 2.37801 20.5347 2.48327 20.8292 2.68047C21.1236 2.87766 21.3531 3.15794 21.4887 3.48586C21.6242 3.81378 21.6596 4.17461 21.5905 4.52272C21.5215 4.87084 21.3509 5.1906 21.1005 5.44157C20.85 5.69254 20.531 5.86346 20.1836 5.9327C19.8363 6.00194 19.4762 5.9664 19.149 5.83057C18.8218 5.69474 18.5421 5.46472 18.3454 5.1696C18.1486 4.87449 18.0436 4.52752 18.0436 4.17259C18.0441 3.69679 18.233 3.24064 18.5687 2.9042C18.9044 2.56777 19.3596 2.37853 19.8343 2.378ZM4.16572 8.82739C3.53961 8.8274 2.92756 9.01348 2.40698 9.36209C1.88639 9.7107 1.48064 10.2062 1.24105 10.7859C1.00145 11.3656 0.938767 12.0035 1.06092 12.6189C1.18307 13.2344 1.48458 13.7997 1.92731 14.2434C2.37004 14.687 2.93411 14.9892 3.54818 15.1116C4.16226 15.234 4.79877 15.1712 5.37722 14.9311C5.95567 14.6909 6.45008 14.2843 6.79792 13.7626C7.14577 13.2408 7.33143 12.6275 7.33143 12C7.33049 11.1588 6.99666 10.3524 6.40317 9.75765C5.80969 9.16288 5.00502 8.82832 4.16572 8.82739ZM4.16572 13.7946C3.81156 13.7946 3.46535 13.6893 3.17088 13.4921C2.87641 13.2949 2.6469 13.0146 2.51138 12.6867C2.37585 12.3588 2.3404 11.998 2.4095 11.6498C2.4786 11.3017 2.64914 10.982 2.89958 10.731C3.15001 10.48 3.46908 10.3091 3.81643 10.2399C4.16379 10.1706 4.52383 10.2062 4.85103 10.342C5.17823 10.4778 5.4579 10.7078 5.65466 11.003C5.85142 11.2981 5.95644 11.645 5.95644 12C5.9559 12.4758 5.76706 12.9319 5.43135 13.2684C5.09564 13.6048 4.64048 13.794 4.16572 13.7946ZM12 8.82739C11.3739 8.82739 10.7619 9.01346 10.2413 9.36207C9.72068 9.71068 9.31492 10.2062 9.07532 10.7859C8.83572 11.3656 8.77303 12.0035 8.89518 12.6189C9.01732 13.2343 9.31883 13.7996 9.76155 14.2433C10.2043 14.687 10.7684 14.9892 11.3824 15.1116C11.9965 15.234 12.633 15.1712 13.2115 14.9311C13.7899 14.6909 14.2843 14.2843 14.6322 13.7626C14.98 13.2408 15.1657 12.6275 15.1657 12C15.1648 11.1588 14.8309 10.3524 14.2374 9.75766C13.644 9.16289 12.8393 8.82834 12 8.82739ZM12 13.7946C11.6459 13.7946 11.2997 13.6893 11.0052 13.4921C10.7107 13.2949 10.4812 13.0147 10.3457 12.6867C10.2101 12.3588 10.1747 11.998 10.2438 11.6499C10.3128 11.3018 10.4834 10.982 10.7338 10.731C10.9843 10.48 11.3033 10.3091 11.6507 10.2399C11.998 10.1706 12.3581 10.2062 12.6853 10.342C13.0125 10.4778 13.2922 10.7078 13.4889 11.003C13.6857 11.2981 13.7907 11.645 13.7907 12C13.7902 12.4758 13.6013 12.9319 13.2656 13.2684C12.9299 13.6048 12.4748 13.794 12 13.7946ZM19.8343 8.82739C19.2082 8.82739 18.5962 9.01346 18.0756 9.36207C17.555 9.71068 17.1492 10.2062 16.9096 10.7859C16.67 11.3656 16.6073 12.0035 16.7295 12.6189C16.8516 13.2343 17.1531 13.7996 17.5959 14.2433C18.0386 14.687 18.6027 14.9892 19.2167 15.1116C19.8308 15.234 20.4673 15.1712 21.0458 14.9311C21.6242 14.6909 22.1186 14.2843 22.4665 13.7626C22.8143 13.2408 23 12.6275 23 12C22.999 11.1588 22.6652 10.3524 22.0717 9.75768C21.4783 9.16291 20.6736 8.82835 19.8343 8.82739ZM19.8343 13.7946C19.4802 13.7946 19.134 13.6893 18.8395 13.4921C18.545 13.2949 18.3155 13.0147 18.18 12.6867C18.0444 12.3588 18.009 11.998 18.0781 11.6499C18.1472 11.3018 18.3177 10.982 18.5681 10.731C18.8186 10.48 19.1376 10.3091 19.485 10.2399C19.8323 10.1706 20.1924 10.2062 20.5196 10.342C20.8468 10.4778 21.1265 10.7078 21.3232 11.003C21.52 11.2981 21.625 11.645 21.625 12C21.6245 12.4758 21.4356 12.9319 21.0999 13.2683C20.7642 13.6048 20.3091 13.794 19.8343 13.7946ZM4.16572 16.6547C3.5396 16.6547 2.92754 16.8408 2.40694 17.1894C1.88634 17.538 1.48058 18.0335 1.24098 18.6133C1.00137 19.193 0.93868 19.8309 1.06083 20.4463C1.18298 21.0617 1.48448 21.6271 1.92722 22.0708C2.36995 22.5145 2.93403 22.8166 3.54812 22.939C4.16221 23.0615 4.79873 22.9986 5.37718 22.7585C5.95564 22.5184 6.45006 22.1117 6.79791 21.59C7.14577 21.0683 7.33143 20.4549 7.33143 19.8274C7.33049 18.9862 6.99666 18.1798 6.40317 17.585C5.80969 16.9902 5.00503 16.6557 4.16572 16.6547ZM4.16572 21.622C3.81155 21.622 3.46533 21.5167 3.17084 21.3195C2.87636 21.1223 2.64684 20.842 2.51131 20.5141C2.37577 20.1862 2.34031 19.8253 2.40941 19.4772C2.47851 19.1291 2.64906 18.8093 2.8995 18.5583C3.14994 18.3073 3.46902 18.1364 3.81639 18.0672C4.16376 17.9979 4.52382 18.0335 4.85103 18.1693C5.17824 18.3052 5.45791 18.5352 5.65467 18.8303C5.85143 19.1254 5.95645 19.4724 5.95644 19.8274C5.9559 20.3032 5.76706 20.7593 5.43135 21.0958C5.09564 21.4322 4.64048 21.6214 4.16572 21.622ZM12 16.6547C11.3739 16.6547 10.7618 16.8408 10.2412 17.1894C9.72063 17.538 9.31486 18.0335 9.07525 18.6132C8.83564 19.1929 8.77294 19.8309 8.89509 20.4463C9.01723 21.0617 9.31873 21.627 9.76147 22.0707C10.2042 22.5144 10.7683 22.8166 11.3824 22.939C11.9965 23.0615 12.633 22.9986 13.2114 22.7585C13.7899 22.5184 14.2843 22.1117 14.6322 21.59C14.98 21.0683 15.1657 20.4549 15.1657 19.8274C15.1648 18.9862 14.8309 18.1798 14.2375 17.585C13.644 16.9903 12.8393 16.6557 12 16.6547ZM12 21.622C11.6458 21.622 11.2996 21.5167 11.0051 21.3195C10.7106 21.1223 10.4811 20.842 10.3456 20.5141C10.21 20.1862 10.1746 19.8253 10.2437 19.4772C10.3128 19.1291 10.4833 18.8093 10.7337 18.5583C10.9842 18.3073 11.3033 18.1364 11.6506 18.0672C11.998 17.9979 12.3581 18.0335 12.6853 18.1693C13.0125 18.3051 13.2922 18.5352 13.4889 18.8303C13.6857 19.1254 13.7907 19.4724 13.7907 19.8274C13.7902 20.3032 13.6013 20.7593 13.2656 21.0957C12.9299 21.4322 12.4748 21.6214 12 21.622ZM19.8343 16.6547C19.2082 16.6547 18.5961 16.8408 18.0755 17.1894C17.5549 17.538 17.1492 18.0335 16.9096 18.6132C16.6699 19.1929 16.6072 19.8309 16.7294 20.4463C16.8515 21.0617 17.153 21.627 17.5958 22.0707C18.0385 22.5144 18.6026 22.8166 19.2167 22.939C19.8308 23.0615 20.4673 22.9986 21.0457 22.7585C21.6242 22.5184 22.1186 22.1117 22.4665 21.59C22.8143 21.0683 23 20.4549 23 19.8274C22.999 18.9862 22.6652 18.1798 22.0717 17.5851C21.4783 16.9903 20.6736 16.6557 19.8343 16.6547ZM19.8343 21.622C19.4802 21.622 19.1339 21.5167 18.8394 21.3195C18.545 21.1223 18.3154 20.842 18.1799 20.5141C18.0443 20.1862 18.0089 19.8253 18.078 19.4772C18.1471 19.1291 18.3176 18.8093 18.5681 18.5583C18.8185 18.3073 19.1376 18.1364 19.4849 18.0672C19.8323 17.9979 20.1924 18.0335 20.5196 18.1693C20.8468 18.3051 21.1265 18.5352 21.3232 18.8303C21.52 19.1254 21.625 19.4724 21.625 19.8274C21.6245 20.3032 21.4356 20.7593 21.0999 21.0957C20.7642 21.4322 20.3091 21.6214 19.8343 21.622Z" fill="white"/>
</g>
</svg>
