<svg width="24" height="24" viewBox="0 0 24 24" fill="none" xmlns="http://www.w3.org/2000/svg">
<g clip-path="url(#clip0_499_4092)">
<path d="M10.1329 19.9501C10.6445 19.4588 10.918 18.8661 10.918 18.238C10.918 17.615 10.6495 17.0173 10.1379 16.5057L8.54236 14.905C8.61327 14.7733 8.67912 14.6416 8.74497 14.515C8.83615 14.3326 8.92226 14.1604 9.01344 14.0135C9.96573 12.5142 11.2067 11.1516 12.8125 9.84471C13.6128 9.21154 14.2865 8.78605 14.9703 8.47706C15.3502 8.89242 15.7453 9.27739 16.1252 9.65222C16.267 9.79405 16.4139 9.93588 16.5558 10.0777C17.6195 11.1414 18.9973 11.1414 20.061 10.0777L21.4438 8.69487C21.6009 8.53784 21.763 8.37575 21.925 8.22379C22.2391 7.91987 22.5633 7.60075 22.8672 7.2715C23.3535 6.78016 23.6118 6.19258 23.6118 5.57461C23.6118 4.95663 23.3535 4.35892 22.8672 3.85238C22.8621 3.84732 22.8621 3.84732 22.8571 3.84225L21.1197 2.12003C20.4713 1.47166 19.6811 1.10189 18.7643 1.02084C17.2852 0.899274 15.9074 1.3349 15.0058 1.66921C12.7922 2.4898 10.7407 3.71562 8.54236 5.54421C5.89317 7.76284 3.80118 10.4323 2.32716 13.4816C1.77503 14.6467 1.1216 16.2017 1.01016 17.9392C1.0051 18.0455 1.00003 18.157 1.00003 18.2583C1.00003 19.4284 1.42045 20.4111 2.25624 21.181C2.26637 21.1861 2.27144 21.1962 2.28157 21.2013C2.60068 21.4647 2.88941 21.7686 3.1984 22.0877C3.40608 22.3055 3.62389 22.5284 3.85183 22.7462C4.37356 23.2477 4.9814 23.5111 5.60445 23.5111C6.23255 23.5111 6.83533 23.2426 7.34187 22.731L10.1329 19.9501ZM4.79905 21.7635C4.79905 21.7584 4.79399 21.7584 4.79905 21.7635C4.58631 21.566 4.39382 21.3633 4.18108 21.1455C3.86702 20.8163 3.53778 20.482 3.168 20.1679C2.62095 19.6563 2.36261 19.0535 2.36261 18.2633C2.36261 18.1874 2.36261 18.1063 2.36768 18.0303C2.46392 16.5259 3.0515 15.1279 3.55297 14.0794C4.94088 11.2124 6.91131 8.69487 9.40853 6.60287C11.4904 4.87559 13.4152 3.72068 15.4819 2.95581C16.7432 2.48473 17.7259 2.31251 18.6528 2.38849C19.2455 2.43915 19.7368 2.66709 20.1572 3.08751L21.8845 4.8148C22.1175 5.063 22.2442 5.3264 22.2442 5.58474C22.2442 5.90385 22.0517 6.16219 21.8896 6.32428C21.8845 6.32934 21.8795 6.33441 21.8744 6.33948C21.5857 6.64846 21.2868 6.94225 20.9677 7.25124C20.8056 7.40827 20.6435 7.57036 20.4764 7.73245L19.0935 9.1153C18.5566 9.65222 18.0602 9.65222 17.5232 9.1153C17.3764 8.9684 17.2295 8.82657 17.0876 8.67967C16.652 8.25418 16.2468 7.84895 15.8517 7.40827C15.8415 7.39814 15.8365 7.38801 15.8264 7.38294C15.3907 6.94732 14.9652 7.02836 14.6765 7.11954C14.6613 7.12461 14.6461 7.12967 14.6309 7.13474C13.7597 7.49438 12.9391 8.00091 11.9615 8.77085L11.9564 8.77592C10.2342 10.174 8.89187 11.648 7.8636 13.274C7.7319 13.4816 7.62553 13.6944 7.52422 13.897C7.43304 14.0794 7.34693 14.2516 7.25575 14.3985C7.24562 14.4187 7.23043 14.439 7.2203 14.4593C7.13419 14.6315 7.09366 14.7936 7.09366 14.9607C7.09366 15.3811 7.35706 15.6445 7.44317 15.7307L9.17553 17.463C9.34775 17.6352 9.55543 17.9088 9.55543 18.2279C9.55543 18.5419 9.35788 18.8003 9.18566 18.9573C9.18059 18.9624 9.18059 18.9624 9.17553 18.9674L6.38451 21.7584C5.86784 22.2802 5.33598 22.2802 4.79905 21.7635Z" fill="white"/>
<path d="M1.20776 2.82071C1.10807 2.44895 1.44822 2.10868 1.82002 2.20823L6.22722 3.38827C6.59903 3.48782 6.72364 3.95253 6.45152 4.22475L3.22597 7.45148C2.95386 7.72369 2.4891 7.59925 2.38942 7.22749L1.20776 2.82071Z" stroke="white"/>
</g>
<defs>
<clipPath id="clip0_499_4092">
<rect width="24" height="24" fill="white"/>
</clipPath>
</defs>
</svg>
