<svg width="24" height="24" viewBox="0 0 24 24" fill="none" xmlns="http://www.w3.org/2000/svg">
<path d="M23.25 17.7308H21.75V13.5481C21.75 10.6638 20.7228 7.89775 18.8943 5.85829C17.0658 3.81883 14.5859 2.67308 12 2.67308C9.41414 2.67308 6.93419 3.81883 5.10571 5.85829C3.27723 7.89775 2.25 10.6638 2.25 13.5481V17.7308H0.75V13.5481C0.75 10.2201 1.93526 7.02847 4.04505 4.67525C6.15483 2.32203 9.01631 1 12 1C14.9837 1 17.8452 2.32203 19.955 4.67525C22.0647 7.02847 23.25 10.2201 23.25 13.5481V17.7308Z" fill="white"/>
<path d="M5.4225 22.7504H4.5C4.00754 22.7504 3.51991 22.6422 3.06494 22.432C2.60997 22.2218 2.19657 21.9137 1.84835 21.5253C1.14509 20.7409 0.75 19.677 0.75 18.5677V16.8946C0.75 15.7853 1.14509 14.7214 1.84835 13.937C2.55161 13.1526 3.50544 12.7119 4.5 12.7119H5.4225C5.77663 12.7185 6.11425 12.88 6.36258 13.1617C6.61091 13.4434 6.75005 13.8226 6.75 14.2177V21.2446C6.75005 21.6397 6.61091 22.0189 6.36258 22.3006C6.11425 22.5822 5.77663 22.7438 5.4225 22.7504ZM4.5 14.385C3.90326 14.385 3.33097 14.6494 2.90901 15.12C2.48705 15.5907 2.25 16.229 2.25 16.8946V18.5677C2.25 19.2333 2.48705 19.8716 2.90901 20.3422C3.33097 20.8129 3.90326 21.0773 4.5 21.0773H5.25V14.385H4.5Z" fill="white"/>
<path d="M19.5 22.7504H18.6C18.242 22.7504 17.8986 22.5917 17.6454 22.3093C17.3922 22.027 17.25 21.644 17.25 21.2446V14.2177C17.25 13.8183 17.3922 13.4353 17.6454 13.1529C17.8986 12.8706 18.242 12.7119 18.6 12.7119H19.5C20.4946 12.7119 21.4484 13.1526 22.1517 13.937C22.8549 14.7214 23.25 15.7853 23.25 16.8946V18.5677C23.25 19.677 22.8549 20.7409 22.1517 21.5253C21.4484 22.3097 20.4946 22.7504 19.5 22.7504ZM18.75 21.0773H19.5C20.0967 21.0773 20.669 20.8129 21.091 20.3422C21.5129 19.8716 21.75 19.2333 21.75 18.5677V16.8946C21.75 16.229 21.5129 15.5907 21.091 15.12C20.669 14.6494 20.0967 14.385 19.5 14.385H18.75V21.0773Z" fill="white"/>
<g clip-path="url(#clip0_499_4091)">
<path d="M16.0383 17.9589C16.0383 17.6854 15.8313 17.4463 15.5554 17.4463C15.2795 17.4463 15.0725 17.6854 15.0725 17.9589C15.0725 19.7958 13.6952 21.2729 12.023 21.2729C10.3509 21.2729 8.97357 19.7958 8.97357 17.9589C8.97357 17.6854 8.7666 17.4463 8.49069 17.4463C8.21478 17.4463 8.00781 17.6854 8.00781 17.9589C8.00781 20.1674 9.54548 22.0074 11.5401 22.2668V23.074H10.337C10.0611 23.074 9.85416 23.3131 9.85416 23.5867C9.85416 23.8603 10.0611 24.0994 10.337 24.0994H13.709C13.9849 24.0994 14.1918 23.8602 14.1918 23.5867C14.1918 23.3132 13.9849 23.074 13.709 23.074H12.5059V22.2668C14.5006 22.0075 16.0383 20.1674 16.0383 17.9589Z" fill="white" stroke="white" stroke-width="0.25"/>
<path d="M12 19.7912C13.0341 19.7912 13.8393 18.7961 13.8393 17.6209V13.9115C13.8393 12.7363 13.0341 11.7412 12 11.7412C10.966 11.7412 10.1608 12.7363 10.1608 13.9115V17.6209C10.1608 18.7961 10.966 19.7912 12 19.7912ZM10.9462 13.9115C10.9462 13.1834 11.4388 12.6301 12 12.6301C12.5612 12.6301 13.0539 13.1834 13.0539 13.9115V17.6209C13.0539 18.3489 12.5612 18.9023 12 18.9023C11.4388 18.9023 10.9462 18.3489 10.9462 17.6209V13.9115Z" fill="white" stroke="white" stroke-width="0.25"/>
</g>
<defs>
<clipPath id="clip0_499_4091">
<rect width="12" height="13" fill="white" transform="translate(6 11)"/>
</clipPath>
</defs>
</svg>
