<svg width="24" height="22" viewBox="0 0 24 22" fill="none" xmlns="http://www.w3.org/2000/svg">
<g id="Layer 2">
<path id="Vector" d="M23.25 16.7308H21.75V12.5481C21.75 9.66385 20.7228 6.89775 18.8943 4.85829C17.0658 2.81883 14.5859 1.67308 12 1.67308C9.41414 1.67308 6.93419 2.81883 5.10571 4.85829C3.27723 6.89775 2.25 9.66385 2.25 12.5481V16.7308H0.75V12.5481C0.75 9.22012 1.93526 6.02847 4.04505 3.67525C6.15483 1.32203 9.01631 0 12 0C14.9837 0 17.8452 1.32203 19.955 3.67525C22.0647 6.02847 23.25 9.22012 23.25 12.5481V16.7308Z" fill="white"/>
<path id="Vector_2" d="M5.4225 21.7504H4.5C4.00754 21.7504 3.51991 21.6422 3.06494 21.432C2.60997 21.2218 2.19657 20.9137 1.84835 20.5253C1.14509 19.7409 0.75 18.677 0.75 17.5677V15.8946C0.75 14.7853 1.14509 13.7214 1.84835 12.937C2.55161 12.1526 3.50544 11.7119 4.5 11.7119H5.4225C5.77663 11.7185 6.11425 11.88 6.36258 12.1617C6.61091 12.4434 6.75005 12.8226 6.75 13.2177V20.2446C6.75005 20.6397 6.61091 21.0189 6.36258 21.3006C6.11425 21.5822 5.77663 21.7438 5.4225 21.7504ZM4.5 13.385C3.90326 13.385 3.33097 13.6494 2.90901 14.12C2.48705 14.5907 2.25 15.229 2.25 15.8946V17.5677C2.25 18.2333 2.48705 18.8716 2.90901 19.3422C3.33097 19.8129 3.90326 20.0773 4.5 20.0773H5.25V13.385H4.5Z" fill="white"/>
<path id="Vector_3" d="M19.5 21.7504H18.6C18.242 21.7504 17.8986 21.5917 17.6454 21.3093C17.3922 21.027 17.25 20.644 17.25 20.2446V13.2177C17.25 12.8183 17.3922 12.4353 17.6454 12.1529C17.8986 11.8706 18.242 11.7119 18.6 11.7119H19.5C20.4946 11.7119 21.4484 12.1526 22.1517 12.937C22.8549 13.7214 23.25 14.7853 23.25 15.8946V17.5677C23.25 18.677 22.8549 19.7409 22.1517 20.5253C21.4484 21.3097 20.4946 21.7504 19.5 21.7504ZM18.75 20.0773H19.5C20.0967 20.0773 20.669 19.8129 21.091 19.3422C21.5129 18.8716 21.75 18.2333 21.75 17.5677V15.8946C21.75 15.229 21.5129 14.5907 21.091 14.12C20.669 13.6494 20.0967 13.385 19.5 13.385H18.75V20.0773Z" fill="white"/>
</g>
</svg>
