<svg width="24" height="24" viewBox="0 0 24 24" fill="none" xmlns="http://www.w3.org/2000/svg">
<path d="M14.1112 3.99338C14.2938 3.63263 14.3809 3.23111 14.3642 2.82714C14.3475 2.42316 14.2275 2.0302 14.0158 1.68575C13.8041 1.34129 13.5076 1.05684 13.1547 0.859517C12.8018 0.662196 12.4043 0.558594 11.9999 0.558594C11.5956 0.558594 11.198 0.662196 10.8451 0.859517C10.4922 1.05684 10.1958 1.34129 9.98405 1.68575C9.77233 2.0302 9.65239 2.42316 9.6357 2.82714C9.619 3.23111 9.7061 3.63263 9.88868 3.99338C8.27555 4.37102 6.8372 5.28232 5.80673 6.57961C4.77625 7.87689 4.21403 9.48413 4.21118 11.1409V18.4346C4.21118 18.6335 4.2902 18.8243 4.43085 18.965C4.5715 19.1056 4.76227 19.1846 4.96118 19.1846H8.64743V20.0884C8.64743 20.9775 9.00064 21.8302 9.62936 22.459C10.2581 23.0877 11.1108 23.4409 11.9999 23.4409C12.8891 23.4409 13.7418 23.0877 14.3705 22.459C14.9992 21.8302 15.3524 20.9775 15.3524 20.0884V19.1846H19.0387C19.2376 19.1846 19.4284 19.1056 19.569 18.965C19.7097 18.8243 19.7887 18.6335 19.7887 18.4346V11.1409C19.7858 9.48413 19.2236 7.87689 18.1931 6.57961C17.1627 5.28232 15.7243 4.37102 14.1112 3.99338ZM11.9999 2.06213C12.1723 2.06139 12.341 2.11187 12.4847 2.20718C12.6283 2.3025 12.7404 2.43833 12.8067 2.59746C12.873 2.75658 12.8906 2.93182 12.8571 3.10093C12.8237 3.27004 12.7408 3.4254 12.6189 3.5473C12.497 3.6692 12.3416 3.75213 12.1725 3.78558C12.0034 3.81903 11.8281 3.80149 11.669 3.73518C11.5099 3.66886 11.374 3.55677 11.2787 3.41313C11.1834 3.26948 11.1329 3.10076 11.1337 2.92838C11.1337 2.69863 11.2249 2.4783 11.3874 2.31585C11.5499 2.15339 11.7702 2.06213 11.9999 2.06213ZM13.8524 20.0884C13.8524 20.5797 13.6573 21.0509 13.3098 21.3983C12.9624 21.7457 12.4912 21.9409 11.9999 21.9409C11.5086 21.9409 11.0374 21.7457 10.69 21.3983C10.3426 21.0509 10.1474 20.5797 10.1474 20.0884V19.1846H13.8524V20.0884ZM18.2887 17.6846H5.71118V11.1409C5.71317 9.59196 6.32935 8.10705 7.4246 7.0118C8.51985 5.91655 10.0048 5.30036 11.5537 5.29838H12.4462C13.9951 5.30036 15.48 5.91655 16.5753 7.0118C17.6705 8.10705 18.2867 9.59196 18.2887 11.1409V17.6846Z" fill="#6D6FF6"/>
<circle cx="20.5" cy="3.5" r="2.5" fill="#F44336"/>
</svg>
