<svg width="24" height="24" viewBox="0 0 24 24" fill="none" xmlns="http://www.w3.org/2000/svg">
<path fill-rule="evenodd" clip-rule="evenodd" d="M12.0007 0.749023C8.68948 0.749023 6.00073 3.43777 6.00073 6.74902C6.00073 10.0603 8.68948 12.749 12.0007 12.749C15.312 12.749 18.0007 10.0603 18.0007 6.74902C18.0007 3.43777 15.312 0.749023 12.0007 0.749023ZM12.0007 2.24902C14.4847 2.24902 16.5007 4.26502 16.5007 6.74902C16.5007 9.23227 14.4847 11.249 12.0007 11.249C9.51748 11.249 7.50073 9.23227 7.50073 6.74902C7.50073 4.26502 9.51748 2.24902 12.0007 2.24902Z" fill="#6D6FF6"/>
<path fill-rule="evenodd" clip-rule="evenodd" d="M1.5 20.2501C1.5 21.9068 2.84325 23.2486 4.5 23.2486H19.5C21.1567 23.2486 22.5 21.9068 22.5 20.2501C22.5 16.5226 19.4775 13.4971 15.75 13.4971C13.3673 13.4971 10.6327 13.4971 8.25 13.4971C4.5225 13.4971 1.5 16.5226 1.5 20.2501ZM3 20.2501C3 17.3506 5.3505 14.9971 8.25 14.9971H15.75C18.6495 14.9971 21 17.3506 21 20.2501C21 21.0781 20.328 21.7486 19.5 21.7486H4.5C3.672 21.7486 3 21.0781 3 20.2501Z" fill="#6D6FF6"/>
</svg>
