<svg width="24" height="24" viewBox="0 0 24 24" fill="none" xmlns="http://www.w3.org/2000/svg">
<path d="M19.9501 14.4789C19.4588 13.9673 18.8661 13.6938 18.238 13.6938C17.615 13.6938 17.0173 13.9623 16.5057 14.4739L14.905 16.0695C14.7733 15.9985 14.6416 15.9327 14.515 15.8668C14.3326 15.7757 14.1604 15.6896 14.0135 15.5984C12.5142 14.6461 11.1516 13.4051 9.84471 11.7994C9.21154 10.999 8.78605 10.3253 8.47706 9.64151C8.89242 9.26161 9.27739 8.86651 9.65222 8.48661C9.79405 8.34478 9.93588 8.19788 10.0777 8.05605C11.1414 6.99233 11.1414 5.61455 10.0777 4.55082L8.69487 3.16798C8.53784 3.01095 8.37575 2.84886 8.22379 2.68677C7.91987 2.37271 7.60075 2.04853 7.2715 1.74461C6.78016 1.25833 6.19258 1 5.57461 1C4.95663 1 4.35892 1.25833 3.85238 1.74461C3.84732 1.74967 3.84732 1.74967 3.84225 1.75474L2.12003 3.49216C1.47166 4.14053 1.10189 4.93072 1.02084 5.84755C0.899274 7.32664 1.3349 8.70442 1.66921 9.60605C2.4898 11.8196 3.71562 13.8711 5.54421 16.0695C7.76284 18.7186 10.4323 20.8106 13.4816 22.2847C14.6467 22.8368 16.2017 23.4902 17.9392 23.6017C18.0455 23.6067 18.157 23.6118 18.2583 23.6118C19.4284 23.6118 20.4111 23.1914 21.181 22.3556C21.1861 22.3454 21.1962 22.3404 21.2013 22.3302C21.4647 22.0111 21.7686 21.7224 22.0877 21.4134C22.3055 21.2057 22.5284 20.9879 22.7462 20.76C23.2477 20.2383 23.5111 19.6304 23.5111 19.0074C23.5111 18.3793 23.2426 17.7765 22.731 17.2699L19.9501 14.4789ZM21.7635 19.8128C21.7584 19.8128 21.7584 19.8178 21.7635 19.8128C21.566 20.0255 21.3633 20.218 21.1455 20.4307C20.8163 20.7448 20.482 21.074 20.1679 21.4438C19.6563 21.9909 19.0535 22.2492 18.2633 22.2492C18.1874 22.2492 18.1063 22.2492 18.0303 22.2441C16.5259 22.1479 15.1279 21.5603 14.0794 21.0588C11.2124 19.6709 8.69487 17.7005 6.60287 15.2033C4.87559 13.1214 3.72068 11.1966 2.95581 9.12991C2.48473 7.86863 2.31251 6.88595 2.38849 5.95899C2.43915 5.36634 2.66709 4.875 3.08751 4.45458L4.8148 2.72729C5.063 2.49428 5.3264 2.36765 5.58474 2.36765C5.90385 2.36765 6.16219 2.56013 6.32428 2.72222C6.32934 2.72729 6.33441 2.73235 6.33948 2.73742C6.64846 3.02615 6.94225 3.325 7.25124 3.64412C7.40827 3.80621 7.57036 3.9683 7.73245 4.13546L9.1153 5.51831C9.65222 6.05523 9.65222 6.55164 9.1153 7.08857C8.9684 7.23546 8.82657 7.38236 8.67967 7.52419C8.25418 7.95981 7.84895 8.36504 7.40827 8.76014C7.39814 8.77027 7.38801 8.77533 7.38294 8.78546C6.94732 9.22109 7.02837 9.64658 7.11954 9.9353C7.12461 9.9505 7.12967 9.96569 7.13474 9.98089C7.49438 10.8521 8.00091 11.6727 8.77085 12.6503L8.77592 12.6554C10.174 14.3776 11.648 15.7199 13.274 16.7482C13.4816 16.8799 13.6944 16.9863 13.897 17.0876C14.0794 17.1788 14.2516 17.2649 14.3985 17.3561C14.4187 17.3662 14.439 17.3814 14.4593 17.3915C14.6315 17.4776 14.7936 17.5182 14.9607 17.5182C15.3812 17.5182 15.6445 17.2548 15.7307 17.1686L17.463 15.4363C17.6352 15.2641 17.9088 15.0564 18.2279 15.0564C18.5419 15.0564 18.8003 15.2539 18.9573 15.4262C18.9624 15.4312 18.9624 15.4312 18.9674 15.4363L21.7584 18.2273C22.2802 18.744 22.2802 19.2758 21.7635 19.8128Z" fill="#6D6FF6"/>
</svg>
